<svg width="247" height="208" viewBox="0 0 247 208" fill="none" xmlns="http://www.w3.org/2000/svg">
<path d="M246.394 72.109C246.394 72.109 60.3445 45.9618 113.617 191.378C113.617 191.378 130.138 164.462 167.506 134.824C163.397 129.205 163.827 121.283 168.86 116.159L170.568 114.418L180.472 104.331L181.262 103.525C182.385 102.387 184.216 102.371 185.355 103.488C186.494 104.61 186.51 106.442 185.393 107.581L184.603 108.386L176.723 116.406C175.601 117.544 175.617 119.381 176.761 120.499C177.9 121.621 179.737 121.605 180.854 120.461L188.733 112.442L189.523 111.636C190.646 110.497 192.477 110.481 193.616 111.598C194.755 112.721 194.771 114.553 193.653 115.691L192.864 116.497L184.984 124.516C183.862 125.655 183.878 127.492 185.022 128.609C186.161 129.732 187.998 129.716 189.115 128.572L196.994 120.552L197.784 119.747C198.907 118.608 200.738 118.592 201.877 119.709C203.016 120.832 203.032 122.663 201.914 123.802L201.125 124.608L191.22 134.695L189.512 136.435C184.393 141.645 176.315 142.15 170.605 137.934C156.737 153.349 138.346 176.295 130.128 197.447C130.133 197.463 240.829 246.078 246.394 72.109Z" fill="url(#paint0_linear)"/>
<path d="M54.4523 0C54.4523 0 -88.7398 168.346 89.2848 207.045C89.2848 207.045 73.1657 174.066 67.1768 118.887C57.8201 118.753 49.9619 111.486 49.269 101.979L49.2637 101.936C48.6406 93.0622 50.9825 84.6616 55.4352 77.7005C60.1243 70.3794 70.4962 69.6651 76.1575 76.261C81.4697 82.4486 84.9341 90.3068 85.6216 99.0458C86.3145 107.844 80.664 115.804 72.5051 118.178C78.9881 141.038 89.7253 171.998 104.711 193.059C90.2839 152.839 92.0725 120.869 110.055 98.0306C116.163 90.2746 124.021 83.7163 133.576 78.388C120.755 54.9049 96.4447 28.5535 54.4523 0Z" fill="url(#paint1_linear)"/>
<defs>
<linearGradient id="paint0_linear" x1="175.21" y1="70.2797" x2="175.21" y2="203.708" gradientUnits="userSpaceOnUse">
<stop stop-color="#5AD710"/>
<stop offset="1" stop-color="#22E4CD"/>
</linearGradient>
<linearGradient id="paint1_linear" x1="66.7881" y1="0" x2="66.7881" y2="207.045" gradientUnits="userSpaceOnUse">
<stop stop-color="#5AD710"/>
<stop offset="1" stop-color="#22E4CD"/>
</linearGradient>
</defs>
</svg>
